inDegrees=yes
name=ik_MT_012005D6_009-001_orientations.mot
DataType=double
version=3
OpenSimVersion=4.3-2021-08-27-4bc7ad9
endheader
time	pelvis_tilt	pelvis_list	pelvis_rotation	pelvis_tx	pelvis_ty	pelvis_tz	hip_flexion_r	hip_adduction_r	hip_rotation_r	knee_angle_r	knee_angle_r_beta	ankle_angle_r	subtalar_angle_r	mtp_angle_r	hip_flexion_l	hip_adduction_l	hip_rotation_l	knee_angle_l	knee_angle_l_beta	ankle_angle_l	subtalar_angle_l	mtp_angle_l	lumbar_extension	lumbar_bending	lumbar_rotation	arm_flex_r	arm_add_r	arm_rot_r	elbow_flex_r	pro_sup_r	wrist_flex_r	wrist_dev_r	arm_flex_l	arm_add_l	arm_rot_l	elbow_flex_l	pro_sup_l	wrist_flex_l	wrist_dev_l
15.00000000000033	180.3711364386051	28.21755851001772	184.159100435482	0	0.9399999999999999	0	2.630042960370702	6.946214091649152	-6.768650136164502	6.459514094378116	0.1127397890258779	29.98387923333362	0	0	20.4230683546042	-12.30875393373923	-2.464803082397559	0.02290169554365953	0.0003997099915261715	29.98729521673151	0	0	39.24410306090251	-13.27760551443688	-3.907306205022976	-89.86634940414412	-38.15254267695023	-67.56556178977716	0.007860547048969961	0.009445572492231189	0	0	-14.19243842211993	17.06361812460179	-69.92393179638312	27.17466715666255	0.005532504253019715	0	0
15.01666666666699	180.4499211085281	30.25760832887674	184.4179538035455	0	0.9399999999999999	0	2.22916548499097	3.989330128121343	-7.693687846633608	3.953669645296173	0.06900455284657456	29.98283268230225	0	0	20.70057023821047	-13.47456855698355	-1.496543262913331	0.02249370366691693	0.0003925891899556223	29.98737638615103	0	0	38.34217551699944	-13.84363350411015	-4.871116871971401	-89.87731507759665	-39.70940227983722	-65.9270013187742	0.007844841294946264	0.009912393025407086	0	0	-12.74525975506176	19.98513160314064	-70.10617589288333	31.83283116477771	0.005587640466965776	0	0
15.03333333333366	180.5579806354229	32.31516710158479	184.6041207220609	0	0.9399999999999999	0	1.70806785407791	0.6264673199298946	-8.808374804881247	1.746188350328612	0.03047673607320248	29.98134000189395	0	0	21.04799489303959	-14.75393331057994	-0.5327139342932836	0.02215035796331924	0.0003865966769552661	29.98745541329657	0	0	37.59052090230206	-14.40472756252196	-5.701971214111508	-89.88085490260391	-41.25364026927235	-64.19489455408424	0.007849779940589245	0.0104230061611421	0	0	-11.56337013249794	22.67224117559341	-69.92608478618253	36.39498441498074	0.005668519282598623	0	0
15.05000000000033	180.6036500481971	34.40040642682484	184.7553534205751	0	0.9399999999999999	0	1.386521866897819	-3.276756824691716	-10.20515557567525	0.5134455291236398	0.008961315012851951	29.9793026410904	0	0	21.37825754928458	-16.14994416374702	0.4194559730546796	0.02183645697708283	0.0003811180712201833	29.98753228654821	0	0	36.91279564159714	-14.87377404633051	-6.44070052264932	-89.87972333635659	-42.72088936118176	-62.38844283963215	0.007868082504197208	0.01096944185339691	0	0	-10.71424096716108	25.1956361482549	-69.37660320968044	40.86598929992784	0.005774482554163613	0	0
15.066666666667	180.6484325734407	36.49421310909339	184.909095594951	0	0.9399999999999999	0	1.265493579454035	-7.819352536139986	-11.71912020309828	0.2208832770438244	0.003855140447009543	29.97669518756243	0	0	21.72053849106687	-17.53951414505276	1.35675516945362	0.02157901121222208	0.0003766247949780481	29.98761574611256	0	0	36.33382963061378	-15.26964529252358	-7.12301268551428	-89.87485805403421	-44.0073855727091	-60.51999380147958	0.007909350462020083	0.01158146311249141	0	0	-10.20671039833491	27.52826904599575	-68.42203435814487	45.09226576012313	0.005906818985560985	0	0
15.08333333333366	180.7194932867128	38.62372692726823	185.0048287986996	0	0.9399999999999999	0	0.9297326952930429	-12.61076811030513	-13.0436382668847	0.1448435841535277	0.002527997443868543	29.97280636499913	0	0	22.11560839743543	-18.93616123812238	2.279317242241523	0.0213985605694837	0.0003734753371249234	29.98770467194503	0	0	35.91130214308799	-15.60791611977193	-7.781059540850663	-89.86301091743118	-45.21493619581739	-58.5187755475736	0.007962939267191181	0.01221248029277292	0	0	-10.07010163352698	29.58964416136043	-67.17273467535647	49.0920680743459	0.006077523647351072	0	0
15.10000000000033	180.7327747612054	40.74021924150489	185.1815559187231	0	0.9399999999999999	0	0.2167574640864852	-17.29158853195279	-14.19694767485081	0.1163516586418867	0.002030719533457436	29.96666712623763	0	0	22.50475479769996	-20.20734250954698	3.251910465447907	0.02134642186189907	0.0003725653450098371	29.98779504696608	0	0	35.40912272440415	-15.81903603154825	-8.391893500123645	-89.84660163457744	-46.22776598267269	-56.6900243305688	0.008038006018863493	0.01291690635300647	0	0	-10.23055515001699	31.48896415568858	-65.47503840401859	52.77905051491569	0.006271779803998546	0	0
15.116666666667	180.7643795089879	42.93823333521085	185.3257323970291	0	0.9399999999999999	0	-0.6910781550205817	-21.67401149099721	-15.15585769735522	0.1060051520574946	0.001850138927480521	29.9563902389398	0	0	22.85818482921867	-21.44005200687078	4.175180642979365	0.02128300193247429	0.0003714584584299922	29.98790849732186	0	0	35.01530101356541	-15.94381129833293	-9.025872492561129	-89.82183138451599	-47.23370647644552	-54.80768041425537	0.00813799048031074	0.01371980054232837	0	0	-10.70641063266031	33.14318067377586	-63.54175985301813	56.13745931433237	0.006502766741239031	0	0
